<svg viewBox="0 0 200 200" xmlns="http://www.w3.org/2000/svg">
  <path fill="#F2F4F8" d="M45.9,-78.2C59.6,-71.7,70.8,-59.5,78.4,-45.5C86,-31.5,90.1,-15.8,88.7,-0.8C87.4,14.2,80.6,28.4,71.3,39.4C62,50.5,50.1,58.2,37.7,66.4C25.4,74.6,12.7,83.1,-1.4,85.5C-15.5,88,-31.1,84.3,-44.5,76.8C-57.9,69.3,-69.3,57.9,-75.9,44.5C-82.5,31,-84.4,15.5,-84.3,0.1C-84.2,-15.4,-82.1,-30.8,-74.5,-42.5C-66.9,-54.2,-53.6,-62.1,-40.3,-68.8C-27,-75.5,-13.5,-81.1,1.3,-83.4C16.1,-85.7,32.3,-84.8,45.9,-78.2Z" transform="translate(100 100)" />
</svg>